<?xml version="1.0" encoding="utf-8"?>
<!-- Generator: Adobe Illustrator 24.2.0, SVG Export Plug-In . SVG Version: 6.00 Build 0)  -->
<svg version="1.1"
	 id="svg70" inkscape:export-filename="G:\Users\suitedoalex\sites\google-podcasts-logo-0.png" inkscape:export-xdpi="96" inkscape:export-ydpi="96" inkscape:version="0.92.2 (5c3e80d, 2017-08-06)" sodipodi:docname="google-podcasts-logo.svg" xmlns:cc="http://creativecommons.org/ns#" xmlns:dc="http://purl.org/dc/elements/1.1/" xmlns:inkscape="http://www.inkscape.org/namespaces/inkscape" xmlns:rdf="http://www.w3.org/1999/02/22-rdf-syntax-ns#" xmlns:sodipodi="http://sodipodi.sourceforge.net/DTD/sodipodi-0.dtd" xmlns:svg="http://www.w3.org/2000/svg"
	 xmlns="http://www.w3.org/2000/svg" xmlns:xlink="http://www.w3.org/1999/xlink" x="0px" y="0px" viewBox="0 0 50.4 55.8"
	 style="enable-background:new 0 0 50.4 55.8;" xml:space="preserve">
<style type="text/css">
	.st0{fill:url(#SVGID_1_);}
</style>
<sodipodi:namedview  bordercolor="#666666" borderopacity="1" gridtolerance="10" guidetolerance="10" id="namedview72" inkscape:current-layer="Group-3" inkscape:cx="469.43999" inkscape:cy="1611.0232" inkscape:pageopacity="0" inkscape:pageshadow="2" inkscape:window-height="837" inkscape:window-maximized="1" inkscape:window-width="1600" inkscape:window-x="-8" inkscape:window-y="-8" inkscape:zoom="0.038487783" objecttolerance="10" pagecolor="#ffffff" showgrid="false">
	</sodipodi:namedview>
<desc  id="desc4">Created with Sketch.</desc>
<g>
	
		<linearGradient id="SVGID_1_" gradientUnits="userSpaceOnUse" x1="25.4483" y1="2.197" x2="24.9818" y2="57.9987" gradientTransform="matrix(1 0 0 -1 0 58)">
		<stop  offset="0" style="stop-color:#822CBE"/>
		<stop  offset="1" style="stop-color:#D772FB"/>
	</linearGradient>
	<path class="st0" d="M15.8,15.5c-5.1,5.1-5.5,13-0.8,18.6l1.2,1.5v1.8c0,1-0.1,1.8-0.2,1.8c-0.1,0-0.8-0.5-1.5-1.1h-0.1
		c-2.5-2-4.7-5.5-5.6-9C8.2,27,8.2,23,8.8,21c1.5-5.6,5.6-10,11.4-12c2-0.7,6.3-0.8,8.7-0.3c8.3,1.9,14.2,10.2,13.1,18.5
		c-0.5,3.3-1.6,6.1-3.6,8.6c-1,1.3-3.4,3.4-3.9,3.4c-0.1,0-0.1-0.8-0.1-1.8v-1.8l1.2-1.5c4.7-5.6,4.4-13.5-0.8-18.6
		c-2-2-4.3-3.2-7.3-3.7c-1.9-0.4-2.3-0.4-4.3,0C20.2,12.3,17.9,13.5,15.8,15.5z M50.1,20.9C49,15.6,47,11.6,43.3,7.8
		C38.6,2.7,32.2,0,25.3,0C18.2,0,11.9,2.7,6.9,7.9c-3.4,3.6-5.5,7.7-6.6,12.9c-0.4,1.9-0.3,7,0.1,9.1c1.7,8.2,6.5,14.3,13.9,18
		l0.1,0.1c1.3,0.6,2.5,1.1,2.7,1.1c0.3,0,0.3-0.3,0.2-1.4c-0.2-1.8-0.4-2.1-1.4-2.6c-0.5-0.2-1.6-0.8-2.5-1.4c-4.6-3-8.2-8-9.5-13.5
		c-0.6-2.2-0.6-7.7,0-10c2.1-8.3,8.8-14.9,17-16.5c2.4-0.5,6.6-0.5,9,0c8.1,1.7,14.6,7.9,16.8,16c0.7,2.5,0.8,8,0.1,10.5
		c-1,3.9-3.1,7.7-6,10.6c-1.7,1.7-4.4,3.6-6,4.3c-1,0.4-1.2,0.8-1.4,2.6c-0.1,1.1-0.1,1.4,0.2,1.4c0.7,0,5.2-2.4,7-3.8
		c5.1-3.8,8.6-9.6,9.7-15.8C50.5,27.5,50.5,22.6,50.1,20.9z M22.7,17.9c-2.1,1.1-3.3,3-3.3,5.2c0,1.9,0.7,3.4,2,4.5
		c1.1,1.1,2.6,1.8,4.2,1.8c3.3,0,6-2.7,6-6c0-3-2.2-5.4-5-5.9C25.3,17.2,23.7,17.4,22.7,17.9z M31.4,34.3c-0.2-0.5-0.6-0.9-1.1-1.3
		c-0.2,0-0.2,0-0.3-0.1c-1.1-0.9-2.7-1.4-4.8-1.4c-3,0-5.1,1.1-5.9,2.9c-0.6,1.4-0.4,5.8,0.7,12.9c0.7,4.7,1.1,6.4,2.2,7.2
		c0.1,0.1,0.2,0.3,0.3,0.4c0.5,0.4,1.2,0.6,1.8,0.8c0.6,0.1,1,0.1,1.4,0.1s0.9,0,1.4-0.1s1-0.3,1.5-0.7s0.9-0.9,1.2-1.6
		c0.3-0.7,0.6-1.7,0.9-4s0.8-5.9,1-8.3c0.2-2.4,0.2-3.7,0.2-4.7C31.7,35.4,31.6,34.8,31.4,34.3z"/>
</g>
</svg>
