<?xml version="1.0" encoding="utf-8"?>
<!-- Generator: Adobe Illustrator 24.2.0, SVG Export Plug-In . SVG Version: 6.00 Build 0)  -->
<svg version="1.1"
	 id="svg70" inkscape:export-filename="G:\Users\suitedoalex\sites\google-podcasts-logo-0.png" inkscape:export-xdpi="96" inkscape:export-ydpi="96" inkscape:version="0.92.2 (5c3e80d, 2017-08-06)" sodipodi:docname="google-podcasts-logo.svg" xmlns:cc="http://creativecommons.org/ns#" xmlns:dc="http://purl.org/dc/elements/1.1/" xmlns:inkscape="http://www.inkscape.org/namespaces/inkscape" xmlns:rdf="http://www.w3.org/1999/02/22-rdf-syntax-ns#" xmlns:sodipodi="http://sodipodi.sourceforge.net/DTD/sodipodi-0.dtd" xmlns:svg="http://www.w3.org/2000/svg"
	 xmlns="http://www.w3.org/2000/svg" xmlns:xlink="http://www.w3.org/1999/xlink" x="0px" y="0px" viewBox="0 0 145.4 56.1"
	 style="enable-background:new 0 0 145.4 56.1;" xml:space="preserve">
<style type="text/css">
	.st0{fill-rule:evenodd;clip-rule:evenodd;fill:#FFFFFF;}
	.st1{fill-rule:evenodd;clip-rule:evenodd;fill:#F7991C;}
</style>
<sodipodi:namedview  bordercolor="#666666" borderopacity="1" gridtolerance="10" guidetolerance="10" id="namedview72" inkscape:current-layer="Group-3" inkscape:cx="469.43999" inkscape:cy="1611.0232" inkscape:pageopacity="0" inkscape:pageshadow="2" inkscape:window-height="837" inkscape:window-maximized="1" inkscape:window-width="1600" inkscape:window-x="-8" inkscape:window-y="-8" inkscape:zoom="0.038487783" objecttolerance="10" pagecolor="#ffffff" showgrid="false">
	</sodipodi:namedview>
<desc  id="desc4">Created with Sketch.</desc>
<g id="Page-1_1_">
	<g id="audible_logo_inverse_1_">
		<g id="Group_1_">
			<path id="shape_3_" class="st0" d="M3.6,50.3c-0.4,0-0.7-0.1-0.9-0.3c-0.2-0.2-0.4-0.4-0.4-0.8c0-0.6,0.5-1,1.4-1l1.7-0.1v0.6
				c0,0.5-0.2,0.8-0.5,1.1C4.6,50.2,4.1,50.3,3.6,50.3L3.6,50.3z M3.4,51.2c0.4,0,0.8-0.1,1.2-0.3c0.3-0.2,0.6-0.4,0.8-0.8h0.1v0.9
				h1v-4.4c0-0.7-0.2-1.2-0.6-1.6c-0.4-0.4-1-0.6-1.8-0.6c-0.7,0-1.3,0.2-1.7,0.5s-0.7,0.7-0.8,1.2h1c0.1-0.3,0.2-0.4,0.5-0.6
				s0.6-0.2,1-0.2c1,0,1.5,0.4,1.5,1.2v0.6l-1.9,0.1c-1.6,0.1-2.3,0.7-2.3,1.9c0,0.6,0.2,1,0.6,1.4C2.3,51.1,2.8,51.2,3.4,51.2
				L3.4,51.2z M8.5,51.1h1v-3.8c0-0.6,0.2-1,0.5-1.3c0.3-0.3,0.7-0.5,1.2-0.5s0.9,0.1,1.1,0.4c0.2,0.3,0.4,0.7,0.4,1.3v3.9h1V47
				c0-0.8-0.2-1.3-0.6-1.8c-0.4-0.4-0.9-0.6-1.7-0.6c-0.5,0-0.9,0.1-1.2,0.3c-0.3,0.2-0.6,0.5-0.7,0.8H9.5v-1h-1v0.6V47v1.9v1.6
				V51.1L8.5,51.1z M68.7,45.2c-0.5-0.4-1.1-0.6-1.9-0.6c-0.9,0-1.6,0.3-2.1,0.9c-0.5,0.6-0.8,1.4-0.8,2.4c0,1,0.3,1.8,0.8,2.4
				c0.5,0.6,1.3,0.9,2.2,0.9c0.8,0,1.4-0.2,1.9-0.6c0.5-0.4,0.7-0.9,0.8-1.5h-1c-0.1,0.4-0.3,0.6-0.6,0.8c-0.3,0.2-0.6,0.3-1.1,0.3
				c-0.6,0-1-0.2-1.4-0.7c-0.3-0.4-0.5-1-0.5-1.8c0-0.7,0.2-1.3,0.5-1.7c0.3-0.4,0.8-0.6,1.4-0.6c0.5,0,0.8,0.1,1.1,0.3
				c0.3,0.2,0.5,0.5,0.5,0.8h0.2H69h0.4h0.2C69.4,46.1,69.1,45.6,68.7,45.2z M76,50.3c0.5-0.6,0.8-1.4,0.8-2.4c0-1-0.3-1.8-0.8-2.4
				c-0.5-0.6-1.3-0.9-2.2-0.9c-0.9,0-1.6,0.3-2.2,0.9c-0.5,0.6-0.8,1.4-0.8,2.4c0,1,0.3,1.8,0.8,2.4c0.5,0.6,1.3,0.9,2.2,0.9
				C74.7,51.2,75.5,50.9,76,50.3z M72.4,49.7c-0.3-0.4-0.5-1-0.5-1.8c0-0.8,0.2-1.3,0.5-1.8c0.3-0.4,0.8-0.6,1.4-0.6
				s1.1,0.2,1.4,0.6c0.3,0.4,0.5,1,0.5,1.8c0,0.8-0.2,1.3-0.5,1.8c-0.3,0.4-0.8,0.6-1.4,0.6S72.7,50.1,72.4,49.7z M79.6,51.1v-4
				c0-0.5,0.1-0.8,0.4-1.2c0.3-0.3,0.6-0.5,1.1-0.5c0.4,0,0.7,0.1,1,0.3c0.2,0.2,0.4,0.5,0.4,0.9v4.3h1V47c0-0.4,0.1-0.8,0.4-1
				s0.6-0.4,1.1-0.4c0.5,0,0.8,0.1,1,0.4s0.3,0.6,0.3,1.1v4.2h1v-4.4c0-0.7-0.2-1.2-0.5-1.5c-0.4-0.4-0.9-0.5-1.5-0.5
				c-0.4,0-0.8,0.1-1.2,0.3c-0.3,0.2-0.6,0.5-0.8,0.8h-0.1c-0.1-0.3-0.4-0.6-0.7-0.8c-0.3-0.2-0.7-0.3-1.1-0.3
				c-0.4,0-0.8,0.1-1.1,0.3c-0.3,0.2-0.5,0.5-0.7,0.8h-0.1v-1h-1c0,0,0,0.2,0,0.6s0,1,0,1.6c0,0.6,0,1.3,0,1.9c0,0.6,0,1.2,0,1.6
				s0,0.6,0,0.6H79.6z M91.3,44.9c-0.4,0.2-0.6,0.5-0.9,0.9h-0.1v-1.1h-1v8.5h1v-3.1h0.1c0.2,0.3,0.4,0.6,0.8,0.8
				c0.4,0.2,0.8,0.3,1.2,0.3c0.8,0,1.5-0.3,2-0.9c0.5-0.6,0.7-1.4,0.7-2.4c0-1-0.2-1.8-0.7-2.4c-0.5-0.6-1.1-0.9-2-0.9
				C92.1,44.6,91.7,44.7,91.3,44.9z M90.9,49.7c-0.3-0.4-0.5-1-0.5-1.7c0-0.7,0.2-1.3,0.5-1.7c0.3-0.4,0.8-0.6,1.4-0.6
				c0.6,0,1,0.2,1.4,0.6c0.3,0.4,0.5,1,0.5,1.8s-0.2,1.3-0.5,1.8c-0.3,0.4-0.8,0.6-1.4,0.6C91.7,50.3,91.2,50.1,90.9,49.7z
				 M98.1,50.1c-0.2-0.2-0.4-0.4-0.4-0.8c0-0.6,0.5-1,1.4-1l1.7-0.1v0.6c0,0.5-0.2,0.8-0.5,1.1c-0.3,0.3-0.8,0.5-1.3,0.5
				C98.6,50.3,98.3,50.2,98.1,50.1z M100,51c0.3-0.2,0.6-0.4,0.8-0.8h0.1v0.9h1v-4.4c0-0.7-0.2-1.2-0.6-1.6c-0.4-0.4-1-0.6-1.8-0.6
				c-0.7,0-1.3,0.2-1.7,0.5s-0.7,0.7-0.8,1.2h1c0.1-0.3,0.2-0.4,0.5-0.6s0.6-0.2,1-0.2c1,0,1.5,0.4,1.5,1.2v0.6L99,47.4
				c-1.6,0.1-2.3,0.7-2.3,1.9c0,0.6,0.2,1,0.6,1.4c0.4,0.3,0.9,0.5,1.6,0.5C99.2,51.2,99.6,51.1,100,51z M105,51.1v-3.8
				c0-0.6,0.2-1,0.5-1.3c0.3-0.3,0.7-0.5,1.2-0.5s0.9,0.1,1.1,0.4c0.2,0.3,0.4,0.7,0.4,1.3v3.9h1V47c0-0.8-0.2-1.3-0.6-1.8
				c-0.4-0.4-0.9-0.6-1.7-0.6c-0.5,0-0.9,0.1-1.2,0.3c-0.3,0.2-0.6,0.5-0.7,0.8h-0.1v-1h-1v0.6V47v1.9v1.6v0.6H105z M112.9,53
				c-0.3,0.3-0.8,0.4-1.3,0.4c0,0-0.1,0-0.1,0c-0.1,0-0.1,0-0.2,0c-0.1,0-0.1,0-0.2,0v-0.9c0.1,0,0.1,0,0.2,0c0.1,0,0.1,0,0.2,0
				c0.3,0,0.5-0.1,0.7-0.2c0.2-0.2,0.3-0.4,0.5-0.8l0.1-0.4l-2.4-6.4h1.1l1.8,5.3h0.1l1.8-5.3h1.1l-2.5,6.8
				C113.5,52.3,113.2,52.8,112.9,53z M23.7,51.2c-0.1,0.1-0.2,0.1-0.3,0c-0.4-0.3-0.5-0.5-0.7-0.8c-0.7,0.7-1.2,0.9-2,0.9
				c-1,0-1.8-0.6-1.8-1.8c0-1,0.5-1.6,1.3-1.9c0.7-0.3,1.6-0.3,2.3-0.4V47c0-0.3,0-0.6-0.1-0.9c-0.2-0.2-0.4-0.3-0.7-0.3
				c-0.5,0-0.9,0.2-1,0.7c0,0.1-0.1,0.2-0.2,0.2l-1.2-0.1c-0.1,0-0.2-0.1-0.2-0.2c0.3-1.4,1.6-1.8,2.8-1.8c0.6,0,1.4,0.2,1.9,0.6
				c0.6,0.5,0.5,1.3,0.5,2V49c0,0.6,0.2,0.8,0.5,1.1c0.1,0.1,0.1,0.2,0,0.3C24.4,50.6,23.9,51,23.7,51.2L23.7,51.2z M22.4,48.3v-0.3
				c-0.9,0-1.8,0.2-1.8,1.2c0,0.5,0.3,0.9,0.7,0.9c0.3,0,0.7-0.2,0.9-0.5C22.4,49.2,22.4,48.8,22.4,48.3z M39.8,51.2
				c-0.1,0.1-0.2,0.1-0.3,0c-0.4-0.3-0.5-0.5-0.7-0.8c-0.7,0.7-1.2,0.9-2,0.9c-1,0-1.8-0.6-1.8-1.8c0-1,0.5-1.6,1.3-1.9
				c0.7-0.3,1.6-0.3,2.3-0.4V47c0-0.3,0-0.6-0.1-0.9c-0.1-0.2-0.4-0.3-0.7-0.3c-0.5,0-0.9,0.2-1,0.7c0,0.1-0.1,0.2-0.2,0.2l-1.2-0.1
				c-0.1,0-0.2-0.1-0.2-0.2c0.3-1.4,1.6-1.8,2.8-1.8c0.6,0,1.4,0.2,1.9,0.6c0.6,0.5,0.5,1.3,0.5,2V49c0,0.6,0.2,0.8,0.5,1.1
				c0.1,0.1,0.1,0.2,0,0.3C40.5,50.6,40.1,51,39.8,51.2L39.8,51.2z M38.3,49.6c0.2-0.4,0.2-0.8,0.2-1.3v-0.3c-0.9,0-1.8,0.2-1.8,1.2
				c0,0.5,0.3,0.9,0.7,0.9C37.8,50.1,38.1,49.9,38.3,49.6z M53.7,51.2c-0.1,0-0.2-0.1-0.2-0.2l0-6.1c0-0.1,0.1-0.2,0.2-0.2h1.1
				c0.1,0,0.2,0.1,0.2,0.2v0.9h0c0.3-0.8,0.8-1.2,1.7-1.2c0.6,0,1.1,0.2,1.4,0.7c0.3,0.5,0.3,1.3,0.3,1.9V51c0,0.1-0.1,0.2-0.2,0.2
				h-1.2c-0.1,0-0.2-0.1-0.2-0.2v-3.3c0-0.7,0.1-1.6-0.8-1.6c-0.3,0-0.6,0.2-0.7,0.5c-0.2,0.4-0.2,0.7-0.2,1.1V51
				c0,0.1-0.1,0.2-0.2,0.2H53.7z M49.8,44.6c1.8,0,2.8,1.5,2.8,3.4c0,1.8-1.1,3.3-2.8,3.3C48,51.4,47,49.9,47,48
				C47,46.1,48,44.6,49.8,44.6z M49.8,45.9c-0.9,0-1,1.2-1,1.9c0,0.7,0,2.3,1,2.3c1,0,1-1.3,1-2.1c0-0.5,0-1.1-0.2-1.6
				C50.5,46,50.2,45.9,49.8,45.9z M27,51.2h-1.2c-0.1,0-0.2-0.1-0.2-0.2V45c0-0.1,0.1-0.2,0.2-0.2H27c0.1,0,0.2,0.1,0.2,0.2v0.8h0
				c0.3-0.8,0.9-1.1,1.6-1.1c0.8,0,1.3,0.4,1.6,1.1c0.3-0.8,1-1.1,1.7-1.1c0.5,0,1.1,0.2,1.4,0.7c0.4,0.5,0.3,1.3,0.3,1.9l0,3.8
				c0,0.1-0.1,0.2-0.2,0.2h-1.2c-0.1,0-0.2-0.1-0.2-0.2v-3.2c0-0.3,0-0.9,0-1.1c-0.1-0.4-0.4-0.5-0.7-0.5c-0.3,0-0.6,0.2-0.7,0.5
				c-0.1,0.3-0.1,0.8-0.1,1.2V51c0,0.1-0.1,0.2-0.2,0.2h-1.2c-0.1,0-0.2-0.1-0.2-0.2v-3.2c0-0.7,0.1-1.7-0.8-1.7
				c-0.9,0-0.9,1-0.9,1.7V51C27.3,51.1,27.2,51.2,27,51.2z M41.8,45.8v-0.9c0-0.1,0.1-0.2,0.2-0.2h4c0.1,0,0.2,0.1,0.2,0.2v0.7
				c0,0.1-0.1,0.3-0.3,0.5l-2.1,2.9c0.8,0,1.6,0.1,2.3,0.5c0.2,0.1,0.2,0.2,0.2,0.3v0.9c0,0.1-0.1,0.3-0.3,0.2
				c-1.2-0.6-2.9-0.7-4.3,0c-0.1,0.1-0.3-0.1-0.3-0.2V50c0-0.1,0-0.4,0.2-0.6l2.4-3.3H42C41.9,46,41.8,45.9,41.8,45.8z M44.4,52.5
				c-0.3-0.4-2-0.2-2.7-0.1c-0.2,0-0.3-0.2-0.1-0.3c1.3-0.9,3.5-0.6,3.7-0.3c0.3,0.3-0.1,2.4-1.3,3.4c-0.2,0.2-0.4,0.1-0.3-0.1
				C44.1,54.4,44.7,52.9,44.4,52.5z M43.5,53.6c-2.3,1.6-5.7,2.5-8.5,2.5c-4,0-7.7-1.4-10.4-3.8c-0.2-0.2,0-0.4,0.2-0.3
				c3,1.7,6.6,2.7,10.4,2.7c2.6,0,5.4-0.5,8-1.6C43.5,52.9,43.9,53.3,43.5,53.6z M20.5,33.2V19.9h4.4V33c0,3.2,2.7,4,4.2,4
				c3.3,0,4.4-1.9,4.4-3.1V19.9h4.4v20.6h-2.6l-1.7-2.3c-1.2,1.4-3.2,2.8-6.1,2.8C23.4,40.9,20.5,38.1,20.5,33.2z M70.5,12.6h4.3
				v9.3c1-1.2,2.9-2.5,5.7-2.5c4.1,0,7.3,2.4,7.3,7.6v6.4c0,5.2-3.3,7.6-7.2,7.6c-2.9,0-4.9-1.3-6.1-2.8L73,40.5h-2.5V12.6z
				 M79.4,37c2.1,0,4.1-1.5,4.1-3.9v-5.8c0-2.5-2.1-3.9-4.1-3.9c-2.9,0-4.7,1.6-4.7,3.9v5.6h0C74.7,35.7,76.7,37,79.4,37z M54,12.6
				h4.3v27.9h-2.5l-1.6-2.3c-1.2,1.4-3.2,2.8-6.1,2.8c-3.9,0-7.2-2.4-7.2-7.6V27c0-5.2,3.3-7.6,7.3-7.6c2.8,0,4.7,1.3,5.7,2.5V12.6z
				 M45.3,33.1c0,2.5,2.1,3.9,4.1,3.9c2.7,0,4.7-1.3,4.6-4.1h0v-5.6c0-2.2-1.8-3.9-4.7-3.9c-2,0-4.1,1.5-4.1,3.9V33.1z M90.9,12.6
				h4.4v27.9h-4.4V12.6z M62.3,19.9h4.4v20.6h-4.4V19.9z M64.5,17.4c-1.4,0-2.5-1.1-2.5-2.5s1.1-2.5,2.5-2.5c1.4,0,2.5,1.1,2.5,2.5
				S65.9,17.4,64.5,17.4z M107.4,37c2.3,0,3.8-0.8,5-2.4l3.2,2c-1.2,2.8-4.1,4.4-8.2,4.4c-5.4,0-8.9-2.8-8.9-7.6v-6.3
				c0-4.7,3.5-7.6,8.9-7.6c5.2,0,8.6,2.8,8.6,7.6v4.6h-13.1v1.7C102.9,35.5,104.4,37,107.4,37z M102.9,27v1.3h8.6V27
				c0-2.1-1.5-3.6-4.3-3.6C104.4,23.4,102.9,24.8,102.9,27z M9.1,19.4c5.6,0,8.3,2.9,8.3,7v14.1h-2.6l-1.7-2.3
				C12,39.6,9.8,41,6.8,41c-3.8,0-6.8-2-6.8-6.1c0-5.7,6.7-6.6,9.4-6.6l3.7,0v-1.6c0-2-1.2-3.3-3.9-3.3c-1.9,0-3.2,0.2-4.7,2.4
				L1,23.7C2.1,21.1,4.9,19.4,9.1,19.4z M13.1,33.9v-2.6h-1.9c-2.5,0.1-6.5,0.6-6.5,3.1c0,1.7,1.5,2.6,3.6,2.6c2,0,3.7-0.9,4.3-1.8
				C13,34.6,13,34.2,13.1,33.9z"/>
			<path id="shape_2_" class="st1" d="M126.2,20.6l19.2-12.1v3.3l-19.2,12.1l-19.2-12.1V8.6L126.2,20.6z M126.2,5.5
				c4.3,0,8.1,2.2,10.4,5.6h0l-2.8,1.8c-4.3-5.7-12-6.7-17.4-2.2c-0.2,0.1-0.3,0.3-0.5,0.4l0,0C118,7.8,121.8,5.5,126.2,5.5z
				 M126.2,11.1c2.4,0,4.4,1.2,5.7,3h0l-2.7,1.7c-1.3-1.8-3.1-2.9-5.2-2.9c-1.3,0-2.4,0.4-3.4,1.1C121.7,12.2,123.8,11.1,126.2,11.1
				z M113.2,6.2c-0.7,0.5-1.5,1.3-2.1,2c3.2-5,8.8-8.2,15-8.2c6.3,0,11.8,3.3,15,8.2v0l-2.9,1.8l0-0.1
				C132.3,1.6,121.1-0.1,113.2,6.2z"/>
		</g>
	</g>
</g>
</svg>
