<?xml version="1.0" encoding="utf-8"?>
<!-- Generator: Adobe Illustrator 24.2.0, SVG Export Plug-In . SVG Version: 6.00 Build 0)  -->
<svg version="1.1"
	 id="svg70" inkscape:export-filename="G:\Users\suitedoalex\sites\google-podcasts-logo-0.png" inkscape:export-xdpi="96" inkscape:export-ydpi="96" inkscape:version="0.92.2 (5c3e80d, 2017-08-06)" sodipodi:docname="google-podcasts-logo.svg" xmlns:cc="http://creativecommons.org/ns#" xmlns:dc="http://purl.org/dc/elements/1.1/" xmlns:inkscape="http://www.inkscape.org/namespaces/inkscape" xmlns:rdf="http://www.w3.org/1999/02/22-rdf-syntax-ns#" xmlns:sodipodi="http://sodipodi.sourceforge.net/DTD/sodipodi-0.dtd" xmlns:svg="http://www.w3.org/2000/svg"
	 xmlns="http://www.w3.org/2000/svg" xmlns:xlink="http://www.w3.org/1999/xlink" x="0px" y="0px" viewBox="0 0 38.4 23.9"
	 style="enable-background:new 0 0 38.4 23.9;" xml:space="preserve">
<style type="text/css">
	.st0{fill-rule:evenodd;clip-rule:evenodd;fill:#F7991C;}
</style>
<sodipodi:namedview  bordercolor="#666666" borderopacity="1" gridtolerance="10" guidetolerance="10" id="namedview72" inkscape:current-layer="Group-3" inkscape:cx="469.43999" inkscape:cy="1611.0232" inkscape:pageopacity="0" inkscape:pageshadow="2" inkscape:window-height="837" inkscape:window-maximized="1" inkscape:window-width="1600" inkscape:window-x="-8" inkscape:window-y="-8" inkscape:zoom="0.038487783" objecttolerance="10" pagecolor="#ffffff" showgrid="false">
	</sodipodi:namedview>
<desc  id="desc4">Created with Sketch.</desc>
<g id="Page-1_1_">
	<g id="audible_logo_inverse_1_">
		<g id="Group_1_">
			<path id="shape_2_" class="st0" d="M19.2,20.6L38.4,8.5v3.3L19.2,23.9L0,11.8V8.6L19.2,20.6z M19.2,5.5c4.3,0,8.1,2.2,10.4,5.6
				l0,0l-2.8,1.8c-4.3-5.7-12-6.7-17.4-2.2c-0.2,0.1-0.3,0.3-0.5,0.4l0,0C11,7.8,14.8,5.5,19.2,5.5z M19.2,11.1c2.4,0,4.4,1.2,5.7,3
				l0,0l-2.7,1.7c-1.3-1.8-3.1-2.9-5.2-2.9c-1.3,0-2.4,0.4-3.4,1.1C14.7,12.2,16.8,11.1,19.2,11.1z M6.2,6.2c-0.7,0.5-1.5,1.3-2.1,2
				c3.2-5,8.8-8.2,15-8.2c6.3,0,11.8,3.3,15,8.2l0,0L31.2,10V9.9C25.3,1.6,14.1-0.1,6.2,6.2z"/>
		</g>
	</g>
</g>
</svg>
