<?xml version="1.0" encoding="utf-8"?>
<!-- Generator: Adobe Illustrator 24.2.0, SVG Export Plug-In . SVG Version: 6.00 Build 0)  -->
<svg version="1.1"
	 id="svg70" inkscape:export-filename="G:\Users\suitedoalex\sites\google-podcasts-logo-0.png" inkscape:export-xdpi="96" inkscape:export-ydpi="96" inkscape:version="0.92.2 (5c3e80d, 2017-08-06)" sodipodi:docname="google-podcasts-logo.svg" xmlns:cc="http://creativecommons.org/ns#" xmlns:dc="http://purl.org/dc/elements/1.1/" xmlns:inkscape="http://www.inkscape.org/namespaces/inkscape" xmlns:rdf="http://www.w3.org/1999/02/22-rdf-syntax-ns#" xmlns:sodipodi="http://sodipodi.sourceforge.net/DTD/sodipodi-0.dtd" xmlns:svg="http://www.w3.org/2000/svg"
	 xmlns="http://www.w3.org/2000/svg" xmlns:xlink="http://www.w3.org/1999/xlink" x="0px" y="0px" viewBox="0 0 393.3 55.5"
	 style="enable-background:new 0 0 393.3 55.5;" xml:space="preserve">
<style type="text/css">
	.st0{fill:#FAB908;}
	.st1{fill:#0066D9;}
	.st2{fill:#4285F4;}
	.st3{fill:#EA4335;}
	.st4{fill:#34A853;}
	.st5{fill:#FFFFFF;}
</style>
<sodipodi:namedview  bordercolor="#666666" borderopacity="1" gridtolerance="10" guidetolerance="10" id="namedview72" inkscape:current-layer="Group-3" inkscape:cx="469.43999" inkscape:cy="1611.0232" inkscape:pageopacity="0" inkscape:pageshadow="2" inkscape:window-height="837" inkscape:window-maximized="1" inkscape:window-width="1600" inkscape:window-x="-8" inkscape:window-y="-8" inkscape:zoom="0.038487783" objecttolerance="10" pagecolor="#ffffff" showgrid="false">
	</sodipodi:namedview>
<desc  id="desc4">Created with Sketch.</desc>
<g>
	
		<g id="Podcast_icon_final-3" transform="matrix(17.436483,0,0,17.436483,429.20315,-2343.9177)" inkscape:export-filename="G:\Users\suitedoalex\sites\google-podcasts-logo-4.png" inkscape:export-xdpi="11.098957" inkscape:export-ydpi="11.098957">
		<g id="_logo_Podcasts_192px-8">
			<polygon id="Shape-8" class="st0" points="-23.2,136.6 -22.8,136.6 -22.8,136.1 -22.8,135.9 -22.8,135.4 -23.2,135.4 
				-23.2,135.9 -23.2,136.1 			"/>
			<ellipse id="Oval-0" class="st1" cx="-24.4" cy="135.9" rx="0.2" ry="0.2"/>
			<ellipse id="ellipse9-9" class="st1" cx="-24.4" cy="136.1" rx="0.2" ry="0.2"/>
			<rect id="Rectangle-path-8" x="-24.6" y="135.9" class="st1" width="0.4" height="0.2"/>
			<ellipse id="ellipse12-0" class="st2" cx="-21.6" cy="136.1" rx="0.2" ry="0.2"/>
			<ellipse id="ellipse14-0" class="st2" cx="-21.6" cy="135.9" rx="0.2" ry="0.2"/>
			<rect id="rect16-5" x="-21.8" y="135.9" class="st2" width="0.4" height="0.2"/>
			<ellipse id="ellipse18-2" class="st3" cx="-23.7" cy="136.6" rx="0.2" ry="0.2"/>
			<ellipse id="ellipse20-8" class="st3" cx="-23.7" cy="136.8" rx="0.2" ry="0.2"/>
			<rect id="rect22-6" x="-23.9" y="136.6" class="st3" width="0.4" height="0.2"/>
			<ellipse id="ellipse24-4" class="st3" cx="-23.7" cy="135.3" rx="0.2" ry="0.2"/>
			<ellipse id="ellipse26-3" class="st3" cx="-23.7" cy="136" rx="0.2" ry="0.2"/>
			<rect id="rect28-2" x="-23.9" y="135.3" class="st3" width="0.4" height="0.7"/>
			<ellipse id="ellipse30-7" class="st4" cx="-22.3" cy="135.5" rx="0.2" ry="0.2"/>
			<ellipse id="ellipse32-9" class="st4" cx="-22.3" cy="135.3" rx="0.2" ry="0.2"/>
			<rect id="rect34-0" x="-22.5" y="135.3" class="st4" width="0.4" height="0.2"/>
			<ellipse id="ellipse36-4" class="st0" cx="-23" cy="134.8" rx="0.2" ry="0.2"/>
			<ellipse id="ellipse38-1" class="st0" cx="-23" cy="134.6" rx="0.2" ry="0.2"/>
			<rect id="rect40-9" x="-23.2" y="134.6" class="st0" width="0.4" height="0.2"/>
			<ellipse id="ellipse42-1" class="st0" cx="-23" cy="137.4" rx="0.2" ry="0.2"/>
			<ellipse id="ellipse44-5" class="st0" cx="-23" cy="137.2" rx="0.2" ry="0.2"/>
			<rect id="rect46-3" x="-23.2" y="137.2" class="st0" width="0.4" height="0.2"/>
			<ellipse id="ellipse48-2" class="st4" cx="-22.3" cy="136.8" rx="0.2" ry="0.2"/>
			<ellipse id="ellipse50-8" class="st4" cx="-22.3" cy="136.1" rx="0.2" ry="0.2"/>
			<rect id="rect52-3" x="-22.5" y="136.1" class="st4" width="0.4" height="0.7"/>
			<ellipse id="ellipse54-7" class="st0" cx="-23" cy="135.4" rx="0.2" ry="0.2"/>
			<ellipse id="ellipse56-5" class="st0" cx="-23" cy="136.6" rx="0.2" ry="0.2"/>
		</g>
	</g>
	
		<path id="Podcasts-1" inkscape:connector-curvature="0" inkscape:export-filename="G:\Users\suitedoalex\sites\google-podcasts-logo-4.png" inkscape:export-xdpi="11.098957" inkscape:export-ydpi="11.098957" class="st5" d="
		M223.3,40.7h-4.2V9.4h11.3c2.8,0,5.2,0.9,7.3,2.6c2,1.8,3.1,4,3.1,6.7s-1,4.9-3.1,6.7c-2,1.8-4.5,2.6-7.3,2.6h-7L223.3,40.7z
		 M223.3,24.2h7.1c1.8,0,3.2-0.6,4.3-1.7c1.1-1.1,1.6-2.4,1.6-3.8c0-1.4-0.5-2.6-1.6-3.8c-1.1-1.1-2.5-1.7-4.3-1.7h-7.1V24.2z
		 M244.2,21.8c2.2-2.2,5-3.3,8.4-3.3c3.4,0,6.2,1.1,8.4,3.3c2.2,2.2,3.3,4.9,3.3,8.2c0,3.3-1.1,6-3.3,8.2c-2.2,2.2-5,3.3-8.4,3.3
		c-3.4,0-6.2-1.1-8.4-3.3c-2.2-2.2-3.3-4.9-3.3-8.2S242,24,244.2,21.8L244.2,21.8z M247.4,35.6c1.5,1.4,3.2,2.1,5.2,2.1
		c2,0,3.7-0.7,5.2-2.1c1.5-1.4,2.2-3.3,2.2-5.6s-0.7-4.2-2.2-5.6s-3.2-2.1-5.2-2.1s-3.7,0.7-5.2,2.1c-1.5,1.4-2.2,3.3-2.2,5.6
		C245.2,32.3,245.9,34.2,247.4,35.6L247.4,35.6z M277,41.4c-2.9,0-5.4-1.1-7.6-3.3c-2.1-2.2-3.2-4.9-3.2-8.1s1.1-5.9,3.2-8.1
		c2.1-2.2,4.6-3.3,7.6-3.3c1.7,0,3.3,0.3,4.6,1c1.4,0.7,2.4,1.6,3.1,2.6h0.2l-0.2-3V9.4h4.2v31.3h-4.1v-3h-0.2
		c-0.7,1-1.7,1.9-3.1,2.6C280.3,41,278.7,41.4,277,41.4z M277.7,37.7c2,0,3.7-0.7,5.1-2.1c1.4-1.4,2.1-3.3,2.1-5.6s-0.7-4.2-2.1-5.6
		c-1.4-1.4-3.1-2.1-5.1-2.1c-2,0-3.7,0.7-5.1,2.1c-1.4,1.4-2.1,3.3-2.1,5.6c0,2.3,0.7,4.2,2.1,5.6C274,37,275.7,37.7,277.7,37.7
		L277.7,37.7z M303.7,41.4c-3.4,0-6.2-1.1-8.4-3.3c-2.2-2.2-3.3-4.9-3.3-8.2s1.1-6,3.3-8.2c2.2-2.2,5-3.3,8.4-3.3
		c2.5,0,4.6,0.6,6.3,1.7c1.7,1.2,2.9,2.6,3.6,4.4l-3.9,1.5c-1.2-2.7-3.3-4-6.3-4c-1.9,0-3.5,0.7-5,2.2c-1.4,1.5-2.1,3.3-2.1,5.6
		c0,2.2,0.7,4.1,2.1,5.6c1.4,1.5,3.1,2.2,5,2.2c3.2,0,5.4-1.3,6.6-4l3.8,1.5c-0.8,1.7-2,3.2-3.7,4.4
		C308.3,40.8,306.2,41.4,303.7,41.4L303.7,41.4z M323.8,41.4c-2.4,0-4.4-0.7-6-2c-1.6-1.3-2.4-3-2.4-5.2c0-2.3,1-4.2,2.9-5.5
		c1.9-1.3,4.3-2,7.1-2c2.5,0,4.5,0.4,6.1,1.3v-0.6c0-1.6-0.6-2.8-1.7-3.8c-1.1-0.9-2.5-1.4-4.2-1.4c-1.2,0-2.3,0.3-3.3,0.8
		c-1,0.6-1.7,1.3-2.1,2.3l-3.9-1.6c0.5-1.3,1.6-2.5,3.1-3.6c1.5-1.1,3.6-1.6,6.1-1.6c2.9,0,5.3,0.8,7.2,2.4c1.9,1.6,2.9,3.9,2.9,6.8
		v12.9h-4.1v-3h-0.2C329.6,40.2,327.1,41.4,323.8,41.4L323.8,41.4z M324.5,37.7c1.8,0,3.3-0.6,4.8-1.9c1.4-1.2,2.1-2.7,2.1-4.4
		c-1.2-0.9-3-1.4-5.4-1.4c-2.1,0-3.6,0.4-4.7,1.3c-1,0.8-1.6,1.8-1.6,3c0,1,0.5,1.9,1.4,2.5C322.2,37.4,323.3,37.7,324.5,37.7
		L324.5,37.7z M347.9,41.4c-2.5,0-4.6-0.6-6.3-1.7c-1.6-1.2-2.9-2.6-3.6-4.4l3.8-1.5c1.2,2.7,3.2,4,6.1,4c1.3,0,2.4-0.3,3.3-0.8
		c0.8-0.6,1.3-1.3,1.3-2.2c0-1.4-1-2.3-3.1-2.8l-4.6-1c-1.4-0.3-2.8-1-4.1-2s-1.9-2.3-1.9-4c0-1.9,0.9-3.4,2.7-4.6
		c1.8-1.2,3.9-1.8,6.3-1.8c2,0,3.8,0.4,5.4,1.3c1.6,0.9,2.7,2.1,3.4,3.7l-3.7,1.4c-0.8-1.9-2.6-2.8-5.2-2.8c-1.3,0-2.3,0.2-3.2,0.7
		c-0.9,0.5-1.3,1.2-1.3,2c0,1.2,1,2.1,3,2.5l4.5,1c2.1,0.5,3.7,1.3,4.7,2.4c1,1.1,1.5,2.4,1.5,3.8c0,1.9-0.8,3.5-2.5,4.8
		C352.7,40.8,350.6,41.4,347.9,41.4L347.9,41.4z M369.6,41c-2.4,0-4.2-0.6-5.4-1.8c-1.2-1.2-1.9-2.9-1.9-5.1V22.9h-4v-3.7h4v-6.6
		h4.2v6.6h5.5v3.7h-5.5v10.9c0,2.3,1,3.5,3,3.5c0.8,0,1.4-0.1,1.9-0.3l1.5,3.5C372,40.9,370.9,41,369.6,41z M384.4,41.4
		c-2.5,0-4.6-0.6-6.3-1.7c-1.6-1.2-2.9-2.6-3.6-4.4l3.8-1.5c1.2,2.7,3.2,4,6.1,4c1.3,0,2.4-0.3,3.3-0.8c0.8-0.6,1.3-1.3,1.3-2.2
		c0-1.4-1-2.3-3.1-2.8l-4.6-1c-1.4-0.3-2.8-1-4.1-2c-1.3-1-1.9-2.3-1.9-4c0-1.9,0.9-3.4,2.7-4.6c1.8-1.2,3.9-1.8,6.3-1.8
		c2,0,3.8,0.4,5.4,1.3c1.6,0.9,2.7,2.1,3.4,3.7l-3.7,1.4c-0.8-1.9-2.6-2.8-5.2-2.8c-1.3,0-2.3,0.2-3.2,0.7c-0.9,0.5-1.3,1.2-1.3,2
		c0,1.2,1,2.1,3,2.5l4.5,1c2.1,0.5,3.7,1.3,4.7,2.4c1,1.1,1.5,2.4,1.5,3.8c0,1.9-0.8,3.5-2.5,4.8C389.2,40.8,387,41.4,384.4,41.4
		L384.4,41.4z"/>
	
		<path id="Combined-Shape-6" inkscape:connector-curvature="0" inkscape:export-filename="G:\Users\suitedoalex\sites\google-podcasts-logo-4.png" inkscape:export-xdpi="11.098957" inkscape:export-ydpi="11.098957" class="st5" d="
		M71.1,24.4c0-9.4,7.8-17,17.2-17c5.2,0,8.9,2,11.6,4.7l-3.3,3.3c-2-1.9-4.7-3.3-8.3-3.3c-6.8,0-12.1,5.5-12.1,12.3
		c0,6.8,5.3,12.3,12.1,12.3c4.4,0,6.9-1.8,8.6-3.4c1.3-1.3,2.2-3.2,2.5-5.8H88.3v-4.6h15.6c0.2,0.8,0.3,1.8,0.3,2.9
		c0,3.5-0.9,7.8-4,10.8c-3,3.1-6.8,4.7-11.9,4.7C79,41.3,71.1,33.7,71.1,24.4L71.1,24.4z M116.6,19.7c6,0,10.9,4.6,10.9,10.9
		c0,6.3-4.9,10.9-10.9,10.9c-6,0-10.9-4.6-10.9-10.9C105.7,24.3,110.6,19.7,116.6,19.7z M116.6,37.2c3.3,0,6.2-2.7,6.2-6.6
		c0-3.9-2.9-6.6-6.2-6.6c-3.3,0-6.2,2.7-6.2,6.6C110.5,34.5,113.3,37.2,116.6,37.2z M140.5,19.7c6,0,10.9,4.6,10.9,10.9
		c0,6.3-4.9,10.9-10.9,10.9c-6,0-10.9-4.6-10.9-10.9C129.6,24.3,134.5,19.7,140.5,19.7z M140.5,37.2c3.3,0,6.2-2.7,6.2-6.6
		c0-3.9-2.8-6.6-6.2-6.6c-3.3,0-6.2,2.7-6.2,6.6C134.4,34.5,137.2,37.2,140.5,37.2z M169.9,20h4.6v19.6c0,8.1-4.7,11.4-10.4,11.4
		c-5.3,0-8.5-3.6-9.7-6.5l4.2-1.7c0.7,1.8,2.6,3.9,5.5,3.9c3.6,0,5.8-2.2,5.8-6.4v-1.6h-0.2c-1.1,1.3-3.1,2.5-5.7,2.5
		c-5.5,0-10.5-4.8-10.5-10.9c0-6.2,5-10.9,10.5-10.9c2.6,0,4.7,1.2,5.7,2.5h0.2V20z M164.4,36.9c3.3,0,5.8-2.7,5.8-6.6
		c0-3.8-2.6-6.7-5.8-6.7c-3.3,0-6.1,2.8-6.1,6.7C158.3,34.1,161.1,36.9,164.4,36.9L164.4,36.9z M177.7,40.8V8.7h4.8v32.1H177.7z
		 M195.6,37.2c2.5,0,4.1-1.2,5.4-3l3.7,2.5c-1.2,1.8-4.1,4.8-9.1,4.8c-6.2,0-10.8-4.8-10.8-10.9c0-6.5,4.7-10.9,10.3-10.9
		c5.7,0,8.4,4.5,9.3,6.9l0.5,1.2l-14.6,6C191.5,36.1,193.2,37.2,195.6,37.2L195.6,37.2z M195.3,23.9c-2.5,0-5.8,2.2-5.7,6.4l9.8-4
		C198.8,24.8,197.2,23.9,195.3,23.9z"/>
</g>
</svg>
