<?xml version="1.0" encoding="utf-8"?>
<!-- Generator: Adobe Illustrator 24.2.0, SVG Export Plug-In . SVG Version: 6.00 Build 0)  -->
<svg version="1.1"
	 id="svg70" inkscape:export-filename="G:\Users\suitedoalex\sites\google-podcasts-logo-0.png" inkscape:export-xdpi="96" inkscape:export-ydpi="96" inkscape:version="0.92.2 (5c3e80d, 2017-08-06)" sodipodi:docname="google-podcasts-logo.svg" xmlns:cc="http://creativecommons.org/ns#" xmlns:dc="http://purl.org/dc/elements/1.1/" xmlns:inkscape="http://www.inkscape.org/namespaces/inkscape" xmlns:rdf="http://www.w3.org/1999/02/22-rdf-syntax-ns#" xmlns:sodipodi="http://sodipodi.sourceforge.net/DTD/sodipodi-0.dtd" xmlns:svg="http://www.w3.org/2000/svg"
	 xmlns="http://www.w3.org/2000/svg" xmlns:xlink="http://www.w3.org/1999/xlink" x="0px" y="0px" viewBox="0 0 55.8 55.8"
	 style="enable-background:new 0 0 55.8 55.8;" xml:space="preserve">
<style type="text/css">
	.st0{fill:#FAB908;}
	.st1{fill:#0066D9;}
	.st2{fill:#4285F4;}
	.st3{fill:#EA4335;}
	.st4{fill:#34A853;}
</style>
<sodipodi:namedview  bordercolor="#666666" borderopacity="1" gridtolerance="10" guidetolerance="10" id="namedview72" inkscape:current-layer="Group-3" inkscape:cx="469.43999" inkscape:cy="1611.0232" inkscape:pageopacity="0" inkscape:pageshadow="2" inkscape:window-height="837" inkscape:window-maximized="1" inkscape:window-width="1600" inkscape:window-x="-8" inkscape:window-y="-8" inkscape:zoom="0.038487783" objecttolerance="10" pagecolor="#ffffff" showgrid="false">
	</sodipodi:namedview>
<desc  id="desc4">Created with Sketch.</desc>
<g>
	
		<g id="Podcast_icon_final-3" transform="matrix(17.436483,0,0,17.436483,429.20315,-2343.9177)" inkscape:export-filename="G:\Users\suitedoalex\sites\google-podcasts-logo-4.png" inkscape:export-xdpi="11.098957" inkscape:export-ydpi="11.098957">
		<g id="_logo_Podcasts_192px-8">
			<polygon id="Shape-8" class="st0" points="-23.2,136.6 -22.8,136.6 -22.8,136.1 -22.8,135.9 -22.8,135.4 -23.2,135.4 
				-23.2,135.9 -23.2,136.1 			"/>
			<ellipse id="Oval-0" class="st1" cx="-24.4" cy="135.9" rx="0.2" ry="0.2"/>
			<ellipse id="ellipse9-9" class="st1" cx="-24.4" cy="136.1" rx="0.2" ry="0.2"/>
			<rect id="Rectangle-path-8" x="-24.6" y="135.9" class="st1" width="0.4" height="0.2"/>
			<ellipse id="ellipse12-0" class="st2" cx="-21.6" cy="136.1" rx="0.2" ry="0.2"/>
			<ellipse id="ellipse14-0" class="st2" cx="-21.6" cy="135.9" rx="0.2" ry="0.2"/>
			<rect id="rect16-5" x="-21.8" y="135.9" class="st2" width="0.4" height="0.2"/>
			<ellipse id="ellipse18-2" class="st3" cx="-23.7" cy="136.6" rx="0.2" ry="0.2"/>
			<ellipse id="ellipse20-8" class="st3" cx="-23.7" cy="136.8" rx="0.2" ry="0.2"/>
			<rect id="rect22-6" x="-23.9" y="136.6" class="st3" width="0.4" height="0.2"/>
			<ellipse id="ellipse24-4" class="st3" cx="-23.7" cy="135.3" rx="0.2" ry="0.2"/>
			<ellipse id="ellipse26-3" class="st3" cx="-23.7" cy="136" rx="0.2" ry="0.2"/>
			<rect id="rect28-2" x="-23.9" y="135.3" class="st3" width="0.4" height="0.7"/>
			<ellipse id="ellipse30-7" class="st4" cx="-22.3" cy="135.5" rx="0.2" ry="0.2"/>
			<ellipse id="ellipse32-9" class="st4" cx="-22.3" cy="135.3" rx="0.2" ry="0.2"/>
			<rect id="rect34-0" x="-22.5" y="135.3" class="st4" width="0.4" height="0.2"/>
			<ellipse id="ellipse36-4" class="st0" cx="-23" cy="134.8" rx="0.2" ry="0.2"/>
			<ellipse id="ellipse38-1" class="st0" cx="-23" cy="134.6" rx="0.2" ry="0.2"/>
			<rect id="rect40-9" x="-23.2" y="134.6" class="st0" width="0.4" height="0.2"/>
			<ellipse id="ellipse42-1" class="st0" cx="-23" cy="137.4" rx="0.2" ry="0.2"/>
			<ellipse id="ellipse44-5" class="st0" cx="-23" cy="137.2" rx="0.2" ry="0.2"/>
			<rect id="rect46-3" x="-23.2" y="137.2" class="st0" width="0.4" height="0.2"/>
			<ellipse id="ellipse48-2" class="st4" cx="-22.3" cy="136.8" rx="0.2" ry="0.2"/>
			<ellipse id="ellipse50-8" class="st4" cx="-22.3" cy="136.1" rx="0.2" ry="0.2"/>
			<rect id="rect52-3" x="-22.5" y="136.1" class="st4" width="0.4" height="0.7"/>
			<ellipse id="ellipse54-7" class="st0" cx="-23" cy="135.4" rx="0.2" ry="0.2"/>
			<ellipse id="ellipse56-5" class="st0" cx="-23" cy="136.6" rx="0.2" ry="0.2"/>
		</g>
	</g>
</g>
</svg>
