<?xml version="1.0" encoding="utf-8"?>
<!-- Generator: Adobe Illustrator 24.2.0, SVG Export Plug-In . SVG Version: 6.00 Build 0)  -->
<svg version="1.1"
	 id="svg70" inkscape:export-filename="G:\Users\suitedoalex\sites\google-podcasts-logo-0.png" inkscape:export-xdpi="96" inkscape:export-ydpi="96" inkscape:version="0.92.2 (5c3e80d, 2017-08-06)" sodipodi:docname="google-podcasts-logo.svg" xmlns:cc="http://creativecommons.org/ns#" xmlns:dc="http://purl.org/dc/elements/1.1/" xmlns:inkscape="http://www.inkscape.org/namespaces/inkscape" xmlns:rdf="http://www.w3.org/1999/02/22-rdf-syntax-ns#" xmlns:sodipodi="http://sodipodi.sourceforge.net/DTD/sodipodi-0.dtd" xmlns:svg="http://www.w3.org/2000/svg"
	 xmlns="http://www.w3.org/2000/svg" xmlns:xlink="http://www.w3.org/1999/xlink" x="0px" y="0px" viewBox="0 0 55.8 55.8"
	 style="enable-background:new 0 0 55.8 55.8;" xml:space="preserve">
<style type="text/css">
	.st0{fill:#1ED760;}
</style>
<sodipodi:namedview  bordercolor="#666666" borderopacity="1" gridtolerance="10" guidetolerance="10" id="namedview72" inkscape:current-layer="Group-3" inkscape:cx="469.43999" inkscape:cy="1611.0232" inkscape:pageopacity="0" inkscape:pageshadow="2" inkscape:window-height="837" inkscape:window-maximized="1" inkscape:window-width="1600" inkscape:window-x="-8" inkscape:window-y="-8" inkscape:zoom="0.038487783" objecttolerance="10" pagecolor="#ffffff" showgrid="false">
	</sodipodi:namedview>
<desc  id="desc4">Created with Sketch.</desc>
<path class="st0" d="M27.9,0C12.5,0,0,12.5,0,27.9s12.5,27.9,27.9,27.9s27.9-12.5,27.9-27.9C55.9,12.5,43.4,0,27.9,0L27.9,0z
	 M40.7,40.3c-0.5,0.8-1.6,1.1-2.4,0.6c-6.6-4-14.8-4.9-24.5-2.7c-0.9,0.2-1.9-0.4-2.1-1.3C11.5,36,12.1,35,13,34.8
	c10.6-2.4,19.8-1.4,27.1,3.1C41,38.4,41.2,39.5,40.7,40.3z M44.2,32.7c-0.6,1-2,1.3-3,0.7c-7.5-4.6-18.9-6-27.8-3.3
	c-1.2,0.3-2.4-0.3-2.7-1.5s0.3-2.4,1.5-2.7c10.1-3.1,22.8-1.6,31.4,3.7C44.5,30.3,44.8,31.7,44.2,32.7L44.2,32.7z M44.4,24.8
	c-9-5.3-23.9-5.8-32.4-3.2c-1.4,0.4-2.8-0.4-3.3-1.7c-0.4-1.4,0.4-2.8,1.7-3.3c9.9-3,26.3-2.4,36.6,3.7c1.2,0.7,1.7,2.3,0.9,3.6
	C47.3,25.1,45.7,25.5,44.4,24.8L44.4,24.8z"/>
</svg>
