<?xml version="1.0" encoding="utf-8"?>
<!-- Generator: Adobe Illustrator 24.2.0, SVG Export Plug-In . SVG Version: 6.00 Build 0)  -->
<svg version="1.1"
	 id="svg70" inkscape:export-filename="G:\Users\suitedoalex\sites\google-podcasts-logo-0.png" inkscape:export-xdpi="96" inkscape:export-ydpi="96" inkscape:version="0.92.2 (5c3e80d, 2017-08-06)" sodipodi:docname="google-podcasts-logo.svg" xmlns:cc="http://creativecommons.org/ns#" xmlns:dc="http://purl.org/dc/elements/1.1/" xmlns:inkscape="http://www.inkscape.org/namespaces/inkscape" xmlns:rdf="http://www.w3.org/1999/02/22-rdf-syntax-ns#" xmlns:sodipodi="http://sodipodi.sourceforge.net/DTD/sodipodi-0.dtd" xmlns:svg="http://www.w3.org/2000/svg"
	 xmlns="http://www.w3.org/2000/svg" xmlns:xlink="http://www.w3.org/1999/xlink" x="0px" y="0px" viewBox="0 0 186.2 55.9"
	 style="enable-background:new 0 0 186.2 55.9;" xml:space="preserve">
<style type="text/css">
	.st0{fill:#1ED760;}
</style>
<sodipodi:namedview  bordercolor="#666666" borderopacity="1" gridtolerance="10" guidetolerance="10" id="namedview72" inkscape:current-layer="Group-3" inkscape:cx="469.43999" inkscape:cy="1611.0232" inkscape:pageopacity="0" inkscape:pageshadow="2" inkscape:window-height="837" inkscape:window-maximized="1" inkscape:window-width="1600" inkscape:window-x="-8" inkscape:window-y="-8" inkscape:zoom="0.038487783" objecttolerance="10" pagecolor="#ffffff" showgrid="false">
	</sodipodi:namedview>
<desc  id="desc4">Created with Sketch.</desc>
<path class="st0" d="M27.9,0C12.5,0,0,12.5,0,27.9c0,15.4,12.5,27.9,27.9,27.9c15.4,0,27.9-12.5,27.9-27.9C55.9,12.5,43.4,0,27.9,0
	C27.9,0,27.9,0,27.9,0z M40.7,40.3c-0.5,0.8-1.6,1.1-2.4,0.6c-6.6-4-14.8-4.9-24.5-2.7c-0.9,0.2-1.9-0.4-2.1-1.3
	c-0.2-0.9,0.4-1.9,1.3-2.1c10.6-2.4,19.8-1.4,27.1,3.1C41,38.4,41.2,39.5,40.7,40.3z M44.2,32.7c-0.6,1-2,1.3-3,0.7
	c-7.5-4.6-18.9-6-27.8-3.3c-1.2,0.3-2.4-0.3-2.7-1.5c-0.3-1.2,0.3-2.4,1.5-2.7c10.1-3.1,22.8-1.6,31.4,3.7
	C44.5,30.3,44.8,31.7,44.2,32.7L44.2,32.7z M44.4,24.8c-9-5.3-23.9-5.8-32.4-3.2c-1.4,0.4-2.8-0.4-3.3-1.7c-0.4-1.4,0.4-2.8,1.7-3.3
	c9.9-3,26.3-2.4,36.6,3.7c1.2,0.7,1.7,2.3,0.9,3.6C47.3,25.1,45.7,25.5,44.4,24.8L44.4,24.8z M76,25.8c-4.8-1.1-5.7-2-5.7-3.7
	c0-1.6,1.5-2.7,3.8-2.7c2.2,0,4.3,0.8,6.6,2.5c0.1,0.1,0.2,0.1,0.2,0.1c0.1,0,0.2-0.1,0.2-0.1l2.4-3.3c0.1-0.1,0.1-0.3-0.1-0.4
	c-2.7-2.2-5.7-3.2-9.3-3.2c-5.2,0-8.8,3.1-8.8,7.6c0,4.8,3.1,6.5,8.6,7.8c4.6,1.1,5.4,2,5.4,3.5c0,1.8-1.6,2.9-4.1,2.9
	c-2.8,0-5.1-1-7.7-3.2c-0.1-0.1-0.2-0.1-0.2-0.1c-0.1,0-0.2,0-0.2,0.1l-2.6,3.1c-0.1,0.1-0.1,0.3,0,0.4c3,2.7,6.7,4.1,10.6,4.1
	c5.6,0,9.2-3.1,9.2-7.8C84.3,29.4,81.9,27.2,76,25.8C76,25.8,76,25.8,76,25.8z M96.9,21c-2.4,0-4.4,1-6.1,2.9v-2.2
	c0-0.2-0.1-0.3-0.3-0.3h-4.3c-0.2,0-0.3,0.1-0.3,0.3v24.5c0,0.2,0.1,0.3,0.3,0.3h4.3c0.2,0,0.3-0.1,0.3-0.3v-7.7
	c1.6,1.8,3.6,2.7,6.1,2.7c4.5,0,9.1-3.5,9.1-10.1C106,24.5,101.5,21,96.9,21L96.9,21L96.9,21z M101,31.2c0,3.4-2.1,5.7-5.1,5.7
	c-3,0-5.2-2.5-5.2-5.7c0-3.3,2.2-5.7,5.2-5.7C98.9,25.4,101,27.8,101,31.2L101,31.2z M117.8,21c-5.8,0-10.4,4.5-10.4,10.2
	c0,5.7,4.5,10.1,10.3,10.1c5.8,0,10.4-4.5,10.4-10.2C128.1,25.5,123.6,21,117.8,21L117.8,21z M117.8,36.9c-3.1,0-5.4-2.5-5.4-5.8
	c0-3.3,2.3-5.7,5.4-5.7c3.1,0,5.5,2.5,5.5,5.8C123.2,34.5,120.9,36.9,117.8,36.9z M140.5,21.4h-4.8v-4.9c0-0.2-0.1-0.3-0.3-0.3h-4.3
	c-0.2,0-0.3,0.1-0.3,0.3v4.9h-2.1c-0.2,0-0.3,0.1-0.3,0.3v3.7c0,0.2,0.1,0.3,0.3,0.3h2.1v9.6c0,3.9,1.9,5.8,5.7,5.8
	c1.5,0,2.8-0.3,4-1c0.1-0.1,0.2-0.2,0.2-0.3v-3.5c0-0.1-0.1-0.2-0.2-0.3c-0.1-0.1-0.2-0.1-0.3,0c-0.8,0.4-1.6,0.6-2.5,0.6
	c-1.4,0-2-0.6-2-2v-8.9h4.8c0.2,0,0.3-0.1,0.3-0.3v-3.7C140.8,21.6,140.7,21.4,140.5,21.4L140.5,21.4L140.5,21.4z M157.1,21.4v-0.6
	c0-1.8,0.7-2.5,2.2-2.5c0.9,0,1.6,0.2,2.4,0.4c0.1,0,0.2,0,0.3,0c0.1-0.1,0.1-0.2,0.1-0.3v-3.6c0-0.1-0.1-0.3-0.2-0.3
	c-0.9-0.3-1.9-0.5-3.6-0.5c-4,0-6.1,2.2-6.1,6.5v0.9h-2.1c-0.2,0-0.3,0.1-0.3,0.3v3.7c0,0.2,0.1,0.3,0.3,0.3h2.1v14.8
	c0,0.2,0.1,0.3,0.3,0.3h4.3c0.2,0,0.3-0.1,0.3-0.3V25.8h4l6.2,14.8c-0.7,1.6-1.4,1.9-2.3,1.9c-0.8,0-1.6-0.2-2.4-0.7
	c-0.1,0-0.2,0-0.3,0c-0.1,0-0.2,0.1-0.2,0.2l-1.5,3.2c-0.1,0.2,0,0.3,0.1,0.4c1.5,0.8,2.9,1.2,4.6,1.2c3.2,0,5-1.5,6.5-5.5l7.5-19.4
	c0-0.1,0-0.2,0-0.3c-0.1-0.1-0.2-0.1-0.3-0.1h-4.5c-0.1,0-0.3,0.1-0.3,0.2l-4.6,13.2l-5-13.2c0-0.1-0.2-0.2-0.3-0.2L157.1,21.4
	L157.1,21.4L157.1,21.4z M147.5,21.4h-4.3c-0.2,0-0.3,0.1-0.3,0.3v18.8c0,0.2,0.1,0.3,0.3,0.3h4.3c0.2,0,0.3-0.1,0.3-0.3V21.7
	C147.8,21.6,147.7,21.4,147.5,21.4C147.5,21.4,147.5,21.4,147.5,21.4z M145.4,12.8c-1.7,0-3.1,1.4-3.1,3.1c0,1.7,1.4,3.1,3.1,3.1
	c1.7,0,3.1-1.4,3.1-3.1C148.4,14.2,147.1,12.8,145.4,12.8z M183.2,27.5c-1.7,0-3-1.4-3-3s1.3-3.1,3.1-3.1c1.7,0,3,1.4,3,3
	C186.2,26.1,184.9,27.5,183.2,27.5z M183.2,21.7c-1.6,0-2.7,1.2-2.7,2.8c0,1.5,1.2,2.7,2.7,2.7c1.6,0,2.7-1.2,2.7-2.8
	C185.9,22.9,184.7,21.7,183.2,21.7z M183.9,24.7l0.9,1.2H184l-0.8-1.1h-0.7v1.1H182v-3.2h1.4c0.7,0,1.2,0.4,1.2,1
	C184.6,24.3,184.3,24.6,183.9,24.7L183.9,24.7z M183.4,23.3h-0.8v1h0.8c0.4,0,0.6-0.2,0.6-0.5C184,23.5,183.7,23.3,183.4,23.3z"/>
</svg>
